HIERARCHY
ROOT Hips
{
 OFFSET 0.000000 0.000000 0.000000
 CHANNELS 6 Xposition Yposition Zposition Yrotation Xrotation Zrotation
 JOINT Chest
 {
  OFFSET 0.000000 9.585900 0.002600
  CHANNELS 3 Yrotation Xrotation Zrotation
  JOINT Chest2
  {
   OFFSET 0.000000 9.601200 -0.005300
   CHANNELS 3 Yrotation Xrotation Zrotation
   JOINT Chest3
   {
    OFFSET 0.000000 9.561800 0.000000
    CHANNELS 3 Yrotation Xrotation Zrotation
    JOINT Chest4
    {
     OFFSET 0.000000 9.552100 0.000000
     CHANNELS 3 Yrotation Xrotation Zrotation
     JOINT Neck
     {
      OFFSET 0.000000 14.453000 0.000000
      CHANNELS 3 Yrotation Xrotation Zrotation
      JOINT Head
      {
       OFFSET 0.000000 8.936500 -0.011300
       CHANNELS 3 Yrotation Xrotation Zrotation
       End Site
       {
        OFFSET 0.000000 17.073600 -0.006000
       }
      }
     }
     JOINT RightCollar
     {
      OFFSET -2.921100 9.558500 0.000000
      CHANNELS 3 Yrotation Xrotation Zrotation
      JOINT RightShoulder
      {
       OFFSET -13.519700 0.000000 0.000000
       CHANNELS 3 Yrotation Xrotation Zrotation
       JOINT RightElbow
       {
        OFFSET 0.000000 -29.696600 0.000000
        CHANNELS 3 Yrotation Xrotation Zrotation
        JOINT RightWrist
        {
         OFFSET 0.000000 -24.004700 0.000000
         CHANNELS 3 Yrotation Xrotation Zrotation
         End Site
         {
          OFFSET 0.000000 -17.728500 0.000000
         }
        }
       }
      }
     }
     JOINT LeftCollar
     {
      OFFSET 2.921100 9.558500 0.000000
      CHANNELS 3 Yrotation Xrotation Zrotation
      JOINT LeftShoulder
      {
       OFFSET 13.519700 0.000000 0.000000
       CHANNELS 3 Yrotation Xrotation Zrotation
       JOINT LeftElbow
       {
        OFFSET 0.000000 -29.696600 0.000000
        CHANNELS 3 Yrotation Xrotation Zrotation
        JOINT LeftWrist
        {
         OFFSET 0.000000 -24.004700 0.000000
         CHANNELS 3 Yrotation Xrotation Zrotation
         End Site
         {
          OFFSET 0.000000 -17.728500 0.000000
         }
        }
       }
      }
     }
    }
   }
  }
 }
 JOINT RightHip
 {
  OFFSET -7.771700 -0.012900 -0.001300
  CHANNELS 3 Yrotation Xrotation Zrotation
  JOINT RightKnee
  {
   OFFSET 0.000000 -40.869800 0.001200
   CHANNELS 3 Yrotation Xrotation Zrotation
   JOINT RightAnkle
   {
    OFFSET 0.000000 -39.717900 0.002100
    CHANNELS 3 Yrotation Xrotation Zrotation
    JOINT RightToe
    {
     OFFSET 0.000000 -4.965400 11.033500
     CHANNELS 3 Yrotation Xrotation Zrotation
     End Site
     {
      OFFSET 0.000000 -1.423100 5.872300
     }
    }
   }
  }
 }
 JOINT LeftHip
 {
  OFFSET 7.771700 -0.012900 -0.001300
  CHANNELS 3 Yrotation Xrotation Zrotation
  JOINT LeftKnee
  {
   OFFSET 0.000000 -40.869800 0.001200
   CHANNELS 3 Yrotation Xrotation Zrotation
   JOINT LeftAnkle
   {
    OFFSET 0.000000 -39.717900 0.002100
    CHANNELS 3 Yrotation Xrotation Zrotation
    JOINT LeftToe
    {
     OFFSET 0.000000 -4.965400 11.033500
     CHANNELS 3 Yrotation Xrotation Zrotation
     End Site
     {
      OFFSET 0.000000 -1.423100 5.872300
     }
    }
   }
  }
 }
}
MOTION
Frames: 9
Frame Time: 0.008333
0.000000 85.388000 0.000000 0.000000 -5.767877 0.000000 0.000000 11.653817 0.000000 0.000000 -5.885947 0.000000 0.000000 -0.000000 0.000000 0.000000 -0.000000 0.000000 0.000000 12.528835 0.000000 0.000000 0.711642 0.000000 0.000000 -0.000000 0.000000 0.000000 0.000000 -90.000000 0.000000 -2.309062 0.000000 0.000000 2.309062 0.000000 0.000000 -0.000000 0.000000 0.000000 -0.000000 90.000000 0.000000 -2.309062 0.000000 0.000000 2.309062 0.000000 0.000000 8.520406 0.000000 0.000000 1.905762 0.000000 -0.000000 -4.658285 0.000000 0.000000 -0.000000 0.000000 0.000000 8.520406 0.000000 0.000000 1.905762 0.000000 -0.000000 -4.658285 0.000000 0.000000 -0.000000 0.000000
-104.493692 49.320275 21.723747 179.612420 -29.203543 -3.877902 0.716652 16.173776 2.722513 0.051972 1.626746 0.241112 0.060866 2.712291 0.399797 0.681109 14.352867 2.202460 6.514659 19.373514 0.543992 11.858883 0.429787 -1.039470 -7.766778 -4.739602 -3.409367 -9.142048 -2.157236 -11.053267 -48.596397 -42.069012 93.256866 0.512091 -0.869585 0.711680 0.244502 -6.095474 4.217875 9.942511 1.204600 14.696605 60.799448 -36.304015 -100.853676 13.295446 -0.502589 -2.258053 -2.658159 -55.144954 -10.426681 -148.920689 81.068329 -136.776808 -30.417961 -2.970743 -3.386879 -0.247655 -11.885022 2.602054 -15.248535 -57.076879 17.605426 -71.450784 65.553200 -76.976605 30.699468 6.886094 16.192169 0.024955 -0.190836 -0.018514
-104.493643 49.316395 21.716717 179.606619 -29.212809 -3.886368 0.685568 16.175128 2.718320 0.038348 1.621677 0.239359 0.067895 2.712524 0.401108 0.652151 14.342248 2.197910 6.563497 19.231519 0.533546 11.946082 0.163225 -1.087667 -7.762348 -4.722273 -3.406324 -9.214814 -2.161931 -11.095191 -48.510799 -42.035657 93.248254 0.440257 -0.917683 0.590596 0.258784 -6.069734 4.214594 9.974735 1.200718 14.705336 60.800439 -36.330179 -100.841082 13.297569 -0.521655 -2.196209 -2.653993 -55.129123 -10.430579 -148.991290 81.064914 -136.834301 -30.430188 -2.992678 -3.376623 -0.318382 -11.872137 2.613468 -15.267393 -57.072985 17.612902 -71.506025 65.568034 -77.019621 30.701763 6.874578 16.176513 0.024825 -0.190971 -0.019692
-104.491021 49.313456 21.706867 179.588413 -29.240766 -3.901912 0.674246 16.196319 2.732411 0.036075 1.620179 0.239431 0.064044 2.710142 0.401260 0.623374 14.332463 2.191828 6.607339 19.093069 0.529201 12.018738 -0.098147 -1.126561 -7.745882 -4.707180 -3.408548 -9.225089 -2.162948 -11.120053 -48.481861 -42.001032 93.216520 0.339838 -0.974335 0.483603 0.311712 -6.046066 4.205207 9.838886 1.166037 14.713051 60.885425 -36.323904 -100.788605 13.333219 -0.561284 -2.135899 -2.661458 -55.099862 -10.399508 -148.992031 81.051934 -136.825151 -30.475418 -3.007257 -3.357180 -0.315504 -11.868980 2.608422 -15.280604 -57.049981 17.628336 -71.613417 65.594125 -77.101134 30.684483 6.838635 16.133276 0.035944 -0.178910 -0.011279
-104.484328 49.310165 21.698089 179.571630 -29.264566 -3.939079 0.677995 16.215765 2.772858 0.027417 1.618260 0.240616 0.068141 2.709932 0.400279 0.593640 14.321396 2.191412 6.638265 18.961047 0.525054 12.074978 -0.354460 -1.158601 -7.710520 -4.692502 -3.421566 -9.255668 -2.164759 -11.140397 -48.468486 -41.913194 93.134526 0.264671 -1.029084 0.452780 0.307664 -6.027124 4.204847 9.802488 1.145332 14.706941 60.930048 -36.314709 -100.769019 13.383676 -0.618012 -2.082228 -2.705641 -55.075766 -10.327087 -148.992367 81.036715 -136.818385 -30.487733 -3.038702 -3.359684 -0.276328 -11.850739 2.608967 -15.333848 -57.034005 17.679570 -71.708229 65.628249 -77.179136 30.708089 6.861528 16.120248 0.021338 -0.228206 -0.015114
-104.487172 49.304103 21.694042 179.559811 -29.259280 -3.917723 0.674923 16.209221 2.754275 0.019876 1.616976 0.241738 0.074095 2.710717 0.399152 0.517278 14.314223 2.202421 6.689936 18.836514 0.505727 12.111222 -0.603230 -1.185207 -7.642279 -4.686856 -3.449903 -9.306201 -2.161914 -11.179126 -48.460718 -41.717666 93.040751 0.273513 -1.076853 0.486404 0.334501 -6.017971 4.191481 9.754323 1.116134 14.697239 60.964209 -36.286101 -100.746075 13.444043 -0.694886 -2.037052 -2.662045 -55.084889 -10.367863 -149.015795 81.024194 -136.830625 -30.503934 -3.034622 -3.364367 -0.268182 -11.864409 2.617388 -15.305059 -57.047279 17.651805 -71.757684 65.631181 -77.217215 30.678009 6.805663 16.103555 0.038797 -0.177497 -0.011952
-104.482478 49.301329 21.687667 179.548281 -29.282033 -3.937880 0.666212 16.227369 2.777543 0.032398 1.619689 0.239958 0.057991 2.709325 0.402031 0.500454 14.323674 2.210099 6.702519 18.710255 0.494308 12.127575 -0.838454 -1.210422 -7.612130 -4.697971 -3.461326 -9.328435 -2.163614 -11.262747 -48.487604 -41.541018 93.026842 0.238403 -1.128471 0.478636 0.332395 -6.021663 4.177186 9.693941 1.065459 14.694333 60.993858 -36.240913 -100.724967 13.500273 -0.774481 -2.000287 -2.690747 -55.065535 -10.325927 -149.012459 81.016911 -136.824472 -30.536158 -3.054461 -3.355267 -0.277578 -11.848973 2.615432 -15.330404 -57.026344 17.677493 -71.790810 65.643797 -77.244192 30.704010 6.841248 16.109808 0.027101 -0.224695 -0.019935
-104.485156 49.297626 21.685116 179.545285 -29.288386 -3.915445 0.641518 16.234823 2.757266 0.030943 1.620911 0.240516 0.055720 2.711509 0.402958 0.497661 14.327342 2.210616 6.692543 18.595418 0.490410 12.128195 -1.052886 -1.237424 -7.592166 -4.712667 -3.445300 -9.323685 -2.166470 -11.314752 -48.510246 -41.448386 92.985310 0.183025 -1.178775 0.451028 0.312282 -6.021395 4.168158 9.638896 0.992635 14.696630 61.015489 -36.205797 -100.771991 13.556314 -0.867168 -1.915673 -2.661153 -55.063853 -10.361283 -148.992323 81.012227 -136.803324 -30.576742 -3.062463 -3.349993 -0.256644 -11.843325 2.613444 -15.316854 -57.031471 17.627699 -71.790484 65.672098 -77.249744 30.732959 6.846717 16.133684 -0.012134 -0.242025 -0.033211
-104.483243 49.295096 21.684810 179.528399 -29.295225 -3.912077 0.627873 16.242676 2.766501 0.018205 1.624139 0.245258 0.051606 2.715826 0.405070 0.528773 14.322151 2.191228 6.665851 18.496963 0.495511 12.116348 -1.241289 -1.265706 -7.583392 -4.715526 -3.441643 -9.322787 -2.173358 -11.345328 -48.539352 -41.386882 92.955451 0.138637 -1.219314 0.414172 0.285860 -6.019380 4.163739 9.587151 0.907304 14.712572 61.041442 -36.181745 -100.790001 13.599742 -0.931442 -1.887865 -2.657541 -55.060639 -10.350498 -148.959946 81.014438 -136.768565 -30.594330 -3.058650 -3.355070 -0.275437 -11.843658 2.618636 -15.316474 -57.025164 17.634655 -71.816697 65.667983 -77.270097 30.730173 6.837884 16.126595 -0.001069 -0.234193 -0.038257
